<svg width="45" height="45" viewBox="0 0 45 45" fill="none" xmlns="http://www.w3.org/2000/svg">
<rect width="45" height="45" rx="5" fill="#8239F2"/>
<path d="M20.8394 9.03097C14.8622 9.03097 10 13.8932 10 19.8703C10 25.8475 14.8622 30.7097 20.8394 30.7097C22.6666 30.7097 24.4628 30.2761 25.9803 29.44C26.1019 29.5862 26.2367 29.721 26.3829 29.8426L29.4799 32.9395C29.7659 33.2613 30.1146 33.5212 30.5046 33.7034C30.8947 33.8855 31.3179 33.986 31.7481 33.9986C32.1784 34.0113 32.6068 33.9359 33.0069 33.777C33.407 33.6181 33.7704 33.3792 34.0748 33.0748C34.3792 32.7704 34.6181 32.407 34.777 32.0069C34.9359 31.6068 35.0113 31.1784 34.9986 30.7482C34.986 30.3179 34.8855 29.8947 34.7034 29.5046C34.5212 29.1146 34.2613 28.7659 33.9395 28.4799L30.8426 25.3829C30.6917 25.232 30.5256 25.0971 30.347 24.9803C31.1832 23.4628 31.7097 21.6975 31.7097 19.8394C31.7097 13.8622 26.8475 9 20.8703 9L20.8394 9.03097ZM20.8394 12.1279C25.1441 12.1279 28.5818 15.5656 28.5818 19.8703C28.5818 21.9143 27.8385 23.8035 26.5378 25.1971C26.5068 25.2281 26.4758 25.2591 26.4449 25.29C26.2986 25.4116 26.1638 25.5463 26.0423 25.6926C24.6796 26.9314 22.8214 27.6437 20.8084 27.6437C16.5036 27.6437 13.066 24.2061 13.066 19.9013C13.066 15.5965 16.5036 12.1589 20.8084 12.1589L20.8394 12.1279Z" fill="white"/>
</svg>
